<svg id="Capa_1" xmlns="http://www.w3.org/2000/svg" viewBox="0 0 20 20">
    <style>
        .st0{fill:#a44b09}
    </style>
    <path class="st0" d="M13.8 10.5c0 .1 0 .1-.1.2 0 .3.2.5.4.5.3 0 .5-.2.5-.4v-.2-.2c0-.6-.1-1.1-.3-1.7-.2-.7-.6-1.3-1.1-1.8-.6-.6-1.3-1.1-2.2-1.3-.4-.1-.8-.2-1.2-.2h-.4c-.1 0-.3 0-.4.1-.2 0-.4.3-.3.5 0 .3.3.4.5.4h.7c1.1 0 2.1.4 2.8 1.2.7.7 1.1 1.7 1.1 2.8v.1z"/>
    <path class="st0" d="M16.4 10.9c0 .3.2.5.4.5.3 0 .5-.2.5-.4v-.7c0-.4 0-.9-.1-1.3-.3-1.6-1-3-2.1-4.1-1.2-1.3-2.9-2.1-4.7-2.2H9.2c-.2 0-.4 0-.6.1-.3 0-.4.3-.4.5 0 .3.3.4.5.4.1 0 .3 0 .4-.1h.8c.7 0 1.3.1 1.9.3 1 .3 2 .9 2.7 1.7.6.6 1.1 1.4 1.5 2.2.3.8.5 1.6.5 2.5v.2c-.1.2-.1.3-.1.4z"/>
    <path class="st0" d="M17 3c-1.8-1.9-4.4-3-7.2-3H9c-.3 0-.6.1-.9.1-.3 0-.4.3-.4.5.1.4.3.5.6.5.1 0 .3 0 .4-.1H9.9c2.5 0 4.8 1.1 6.5 2.7 1.7 1.7 2.7 4 2.7 6.7v.8c0 .3.2.5.4.5.3 0 .5-.2.5-.4v-.9c0-2.9-1.1-5.5-3-7.4z"/>
    <path class="st0" d="M19.3 15.1l-3.4-1.9c-1.1-.6-1.2-.2-2.4 1.1-.3.3-.8 1.2-1.5 1-1.4-.3-3.9-2.3-4.7-3.2-.4-.4-2.1-2.5-2.1-3.2 0-1 2.2-1.6 1.5-3.5L5.2 1.8C3.7-1.6-.3 3.8 0 6.4c.9 6.2 11.5 16.3 17.5 13 1.3-.8 3.1-3.5 1.8-4.3z"/>
</svg>
