<svg id="Слой_1" xmlns="http://www.w3.org/2000/svg" viewBox="0 0 35 35">
    <style>
        .st0{fill:#fff}.st1{fill:#f5891f}
    </style>
    <path class="st0" d="M0 0h35v35H0z"/>
    <path class="st1" d="M17.1 17.7c.3-.4.7-.9 1.2-1.4l.9-.9c.2-.2.3-.5.3-.8 0-.4-.2-.8-.5-1.1-.4-.3-.8-.4-1.4-.4-.6 0-1.1.1-1.5.4-.4.2-.8.6-1.1 1l-2.2-1.3c.5-.8 1.2-1.4 2-1.8.9-.4 1.9-.6 3.1-.6 1.4 0 2.5.3 3.3.9.8.6 1.3 1.4 1.3 2.4 0 .5-.1.9-.2 1.3s-.4.7-.6.9c-.2.3-.5.6-.9.9-.4.4-.8.7-1 1-.2.3-.3.6-.3 1h-2.7c-.1-.6 0-1.1.3-1.5zm-.3 5.6c-.3-.3-.5-.7-.5-1.2s.2-.8.5-1.1c.3-.3.7-.5 1.2-.5s.9.2 1.2.5c.3.3.5.7.5 1.1 0 .5-.2.8-.5 1.2-.3.3-.7.5-1.2.5-.5-.1-.9-.2-1.2-.5z"/>
</svg>
