<svg id="Capa_1" xmlns="http://www.w3.org/2000/svg" viewBox="0 0 44.2 44.2">
    <style>
        .st0{fill:#f5891f}
    </style>
    <path class="st0" d="M0 22.1C0 9.9 9.9 0 22.1 0s22.1 9.9 22.1 22.1-9.9 22.1-22.1 22.1S0 34.3 0 22.1zm42.7 0c0-11.4-9.2-20.6-20.6-20.6-11.4 0-20.6 9.3-20.6 20.6s9.3 20.6 20.6 20.6c11.4 0 20.6-9.2 20.6-20.6z"/>
    <path class="st0" d="M14.4 24.7c0-.2.1-.4.2-.5l7.3-7.3c.3-.3.8-.3 1.1 0l7.3 7.3c.3.3.3.8 0 1.1-.3.3-.8.3-1.1 0l-6.8-6.8-6.8 6.8c-.3.3-.8.3-1.1 0-.1-.2-.1-.4-.1-.6z"/>
</svg>
